<?xml version="1.0" encoding="UTF-8" standalone="no"?>
<!DOCTYPE svg PUBLIC "-//W3C//DTD SVG 1.1//EN" "http://www.w3.org/Graphics/SVG/1.1/DTD/svg11.dtd">
<svg width="100%" height="100%" viewBox="0 0 256 256" version="1.1" xmlns="http://www.w3.org/2000/svg" xmlns:xlink="http://www.w3.org/1999/xlink" xml:space="preserve" xmlns:serif="http://www.serif.com/" style="fill-rule:evenodd;clip-rule:evenodd;stroke-linejoin:round;stroke-miterlimit:2;">
    <g transform="matrix(5.09606,0,0,5.09606,-1485.01,-533.506)">
        <path d="M316.52,110.81C322.8,110.81 323.54,110.83 326.02,110.95C328.31,111.05 329.56,111.44 330.39,111.76C331.49,112.19 332.27,112.7 333.09,113.52C333.91,114.34 334.42,115.13 334.85,116.22C335.17,117.05 335.56,118.29 335.66,120.59C335.77,123.07 335.8,123.81 335.8,130.09C335.8,136.37 335.78,137.11 335.66,139.59C335.56,141.88 335.17,143.13 334.85,143.96C334.42,145.06 333.91,145.84 333.09,146.66C332.27,147.48 331.48,147.99 330.39,148.42C329.56,148.74 328.32,149.13 326.02,149.23C323.54,149.34 322.8,149.37 316.52,149.37C310.24,149.37 309.5,149.35 307.02,149.23C304.73,149.13 303.48,148.74 302.65,148.42C301.55,147.99 300.77,147.48 299.95,146.66C299.13,145.84 298.62,145.05 298.19,143.96C297.87,143.13 297.48,141.89 297.38,139.59C297.27,137.11 297.24,136.37 297.24,130.09C297.24,123.81 297.26,123.07 297.38,120.59C297.48,118.3 297.87,117.05 298.19,116.22C298.62,115.12 299.13,114.34 299.95,113.52C300.77,112.7 301.56,112.19 302.65,111.76C303.48,111.44 304.72,111.05 307.02,110.95C309.49,110.84 310.24,110.81 316.52,110.81M316.52,106.57C310.13,106.57 309.33,106.6 306.82,106.71C304.32,106.82 302.61,107.22 301.11,107.8C299.56,108.4 298.25,109.21 296.94,110.51C295.63,111.82 294.83,113.13 294.23,114.68C293.65,116.18 293.25,117.89 293.14,120.39C293.03,122.9 293,123.7 293,130.09C293,136.48 293.03,137.28 293.14,139.79C293.25,142.29 293.65,144 294.23,145.5C294.83,147.05 295.64,148.36 296.94,149.67C298.25,150.98 299.56,151.78 301.11,152.38C302.61,152.96 304.32,153.36 306.82,153.47C309.33,153.58 310.13,153.61 316.52,153.61C322.91,153.61 323.71,153.58 326.22,153.47C328.72,153.36 330.43,152.96 331.93,152.38C333.48,151.78 334.79,150.97 336.1,149.67C337.41,148.36 338.21,147.05 338.81,145.5C339.39,144 339.79,142.29 339.9,139.79C340.01,137.28 340.04,136.48 340.04,130.09C340.04,123.7 340.01,122.9 339.9,120.39C339.79,117.89 339.39,116.18 338.81,114.68C338.21,113.13 337.4,111.82 336.1,110.51C334.79,109.2 333.48,108.4 331.93,107.8C330.43,107.22 328.72,106.82 326.22,106.71C323.7,106.6 322.9,106.57 316.52,106.57" style="fill-rule:nonzero;"/>
        <path d="M316.52,118.02C309.85,118.02 304.44,123.43 304.44,130.1C304.44,136.77 309.85,142.18 316.52,142.18C323.19,142.18 328.6,136.77 328.6,130.1C328.59,123.42 323.19,118.02 316.52,118.02M316.52,137.93C312.19,137.93 308.68,134.42 308.68,130.09C308.68,125.76 312.19,122.25 316.52,122.25C320.85,122.25 324.36,125.76 324.36,130.09C324.36,134.42 320.85,137.93 316.52,137.93" style="fill-rule:nonzero;"/>
        <path d="M331.89,117.54C331.89,119.1 330.63,120.36 329.07,120.36C327.51,120.36 326.25,119.1 326.25,117.54C326.25,115.98 327.51,114.72 329.07,114.72C330.63,114.72 331.89,115.98 331.89,117.54" style="fill-rule:nonzero;"/>
    </g>
</svg>
