<?xml version="1.0" encoding="UTF-8" standalone="no"?>
<!DOCTYPE svg PUBLIC "-//W3C//DTD SVG 1.1//EN" "http://www.w3.org/Graphics/SVG/1.1/DTD/svg11.dtd">
<svg width="100%" height="100%" viewBox="0 0 256 256" version="1.1" xmlns="http://www.w3.org/2000/svg" xmlns:xlink="http://www.w3.org/1999/xlink" xml:space="preserve" xmlns:serif="http://www.serif.com/" style="fill-rule:evenodd;clip-rule:evenodd;stroke-linejoin:round;stroke-miterlimit:2;">
    <g transform="matrix(0.5,0,0,0.5,0.0664062,-2.84217e-14)">
        <path d="M464.734,112.465C410.992,112.465 367.27,68.742 367.27,15C367.27,6.715 360.551,0 352.27,0L271.934,0C263.648,0 256.934,6.715 256.934,15L256.934,344.367C256.934,375.961 231.23,401.664 199.633,401.664C168.039,401.664 142.336,375.961 142.336,344.367C142.336,312.77 168.039,287.066 199.633,287.066C207.918,287.066 214.633,280.352 214.633,272.066L214.633,191.73C214.633,183.449 207.918,176.73 199.633,176.73C107.199,176.73 32,251.934 32,344.367C32,436.801 107.199,512 199.633,512C292.066,512 367.27,436.801 367.27,344.367L367.27,198.574C397.125,214.492 430.344,222.801 464.734,222.801C473.02,222.801 479.734,216.086 479.734,207.801L479.734,127.465C479.734,119.184 473.02,112.465 464.734,112.465ZM449.734,192.18C417.711,189.516 387.301,178.328 361.027,159.43C356.461,156.141 350.438,155.688 345.426,158.258C340.418,160.82 337.27,165.977 337.27,171.605L337.27,344.367C337.27,420.258 275.523,482 199.633,482C123.742,482 62,420.258 62,344.367C62,273.543 115.773,215.039 184.633,207.543L184.633,258.355C143.617,265.488 112.336,301.34 112.336,344.367C112.336,392.504 151.496,431.668 199.633,431.668C247.773,431.668 286.934,392.504 286.934,344.367L286.934,30L338.145,30C345.016,88.32 391.414,134.719 449.734,141.59L449.734,192.18Z" style="fill-rule:nonzero;"/>
    </g>
</svg>
