<?xml version="1.0" encoding="UTF-8" standalone="no"?>
<!DOCTYPE svg PUBLIC "-//W3C//DTD SVG 1.1//EN" "http://www.w3.org/Graphics/SVG/1.1/DTD/svg11.dtd">
<svg width="100%" height="100%" viewBox="0 0 256 256" version="1.1" xmlns="http://www.w3.org/2000/svg" xmlns:xlink="http://www.w3.org/1999/xlink" xml:space="preserve" xmlns:serif="http://www.serif.com/" style="fill-rule:evenodd;clip-rule:evenodd;stroke-linejoin:round;stroke-miterlimit:2;">
    <g transform="matrix(4.83963,0,0,4.83963,-755.45,-1732.18)">
        <g>
            <path d="M189.03,378.73C189.85,378.73 190.99,378.3 192.16,376.91L192.16,378.52L194.87,378.52L194.87,363.94L192.16,363.94L192.16,375.01C191.83,375.42 191.09,376.1 190.57,376.1C189.99,376.1 189.85,375.71 189.85,375.12L189.85,363.94L187.14,363.94L187.14,376.13C187.14,377.57 187.58,378.73 189.03,378.73Z" style="fill-rule:nonzero;"/>
            <path d="M176.97,374.88C176.97,377.45 178.31,378.79 180.94,378.79C183.12,378.79 184.84,377.33 184.84,374.88L184.84,367.74C184.84,365.46 183.14,363.82 180.94,363.82C178.55,363.82 176.97,365.4 176.97,367.74L176.97,374.88ZM179.76,367.98C179.76,367.18 180.13,366.59 180.89,366.59C181.72,366.59 182.08,367.16 182.08,367.98L182.08,374.76C182.08,375.55 181.68,376.14 180.95,376.14C180.2,376.14 179.77,375.53 179.77,374.76L179.77,367.98L179.76,367.98Z" style="fill-rule:nonzero;"/>
            <path d="M170.5,378.52L173.55,378.52L173.55,370.5L177.1,358.76L174.01,358.76L172.05,366.66L169.94,358.76L166.87,358.76L170.5,370.5L170.5,378.52Z" style="fill-rule:nonzero;"/>
        </g>
        <g>
            <path d="M198.52,381.84L166.57,381.84C163.14,381.84 160.36,384.62 160.36,388.06L160.36,403.76C160.36,407.19 163.14,409.97 166.57,409.97L198.52,409.97C201.95,409.97 204.73,407.19 204.73,403.76L204.73,388.06C204.74,384.62 201.96,381.84 198.52,381.84ZM170.83,405.32L167.92,405.32L167.92,389.23L164.91,389.23L164.91,386.5L173.83,386.5L173.83,389.23L170.82,389.23L170.82,405.32L170.83,405.32ZM181.17,405.32L178.59,405.32L178.59,403.79C178.11,404.35 177.62,404.78 177.1,405.08C175.71,405.88 173.8,405.86 173.8,403.04L173.8,391.44L176.38,391.44L176.38,402.08C176.38,402.64 176.52,403.02 177.07,403.02C177.57,403.02 178.27,402.38 178.59,401.98L178.59,391.44L181.17,391.44L181.17,405.32ZM191.11,402.44C191.11,404.16 190.47,405.49 188.75,405.49C187.8,405.49 187.02,405.15 186.3,404.25L186.3,405.32L183.69,405.32L183.69,386.5L186.3,386.5L186.3,392.56C186.88,391.85 187.67,391.26 188.59,391.26C190.48,391.26 191.11,392.86 191.11,394.74L191.11,402.44ZM200.65,398.7L195.71,398.7L195.71,401.32C195.71,402.36 195.8,403.26 196.84,403.26C197.93,403.26 197.99,402.53 197.99,401.32L197.99,400.35L200.65,400.35L200.65,401.39C200.65,404.06 199.5,405.69 196.78,405.69C194.31,405.69 193.06,403.89 193.06,401.39L193.06,395.16C193.06,392.75 194.65,391.08 196.98,391.08C199.46,391.08 200.65,392.65 200.65,395.16L200.65,398.7Z" style="fill-rule:nonzero;"/>
            <path d="M196.87,393.52C195.91,393.52 195.72,394.19 195.72,395.15L195.72,396.55L198,396.55L198,395.15C198,394.2 197.79,393.52 196.87,393.52Z" style="fill-rule:nonzero;"/>
            <path d="M186.83,393.6C186.65,393.69 186.47,393.83 186.3,394.02L186.3,402.67C186.51,402.9 186.71,403.06 186.91,403.16C187.33,403.37 187.95,403.39 188.23,403.02C188.38,402.82 188.46,402.51 188.46,402.06L188.46,394.89C188.46,394.42 188.37,394.07 188.18,393.82C187.86,393.42 187.28,393.37 186.83,393.6Z" style="fill-rule:nonzero;"/>
        </g>
    </g>
</svg>
